# xmcd CD database file
#
# Track frame offsets:
#	150
#	15649
#	29624
#
# Disc length: 637 seconds
#
# Revision: 1
# Processed by: cddbd v1.5.2PL0 Copyright (c) Steve Scherf et al.
# Submitted via: CDex 1.40Beta9
#
DISCID=1c027b03
DTITLE=Per Gessle - Sing Along (Maxi-CD)
DYEAR=2009
DGENRE=Pop
TTITLE0=Sing Along (Radio Edit)
TTITLE1=Theme From "Roberta Right"
TTITLE2=Sing Along (Album Version)
EXTD=YEAR: 2009 ID3G: 13
EXTT0=
EXTT1=
EXTT2=
PLAYORDER=
